<mxfile host="app.diagrams.net" modified="2020-12-12T05:27:54.904Z" agent="5.0 (Windows NT 10.0; Win64; x64) AppleWebKit/537.36 (KHTML, like Gecko) Chrome/83.0.4103.61 Safari/537.36" etag="hxAikvEwyAR-vO6z8OF_" version="14.0.1" type="github">
  <diagram name="Page-1" id="2c0d36ab-eaac-3732-788b-9136903baeff">
    <mxGraphModel dx="3874" dy="2519" grid="1" gridSize="10" guides="1" tooltips="1" connect="1" arrows="1" fold="1" page="1" pageScale="1.5" pageWidth="4681" pageHeight="3300" background="#ffffff" math="0" shadow="0">
      <root>
        <mxCell id="0" />
        <mxCell id="1" parent="0" />
        <mxCell id="Z4nJhuRU2NX9AublZQwj-155" value="" style="rounded=1;whiteSpace=wrap;html=1;strokeWidth=2;fillWeight=4;hachureGap=8;hachureAngle=45;fillColor=#dae8fc;sketch=1;fontSize=30;arcSize=7;strokeColor=#6c8ebf;" vertex="1" parent="1">
          <mxGeometry x="10" y="10" width="2770" height="1680" as="geometry" />
        </mxCell>
        <mxCell id="Z4nJhuRU2NX9AublZQwj-156" value="" style="rounded=1;whiteSpace=wrap;html=1;strokeWidth=2;fillWeight=4;hachureGap=8;hachureAngle=45;fillColor=#fff2cc;sketch=1;fontSize=30;strokeColor=#d6b656;glass=0;shadow=0;align=left;" vertex="1" parent="1">
          <mxGeometry x="70" y="60" width="2040" height="110" as="geometry" />
        </mxCell>
        <mxCell id="Z4nJhuRU2NX9AublZQwj-161" value="PC" style="rounded=1;whiteSpace=wrap;html=1;strokeWidth=2;fillWeight=4;hachureGap=8;hachureAngle=45;fillColor=#f5f5f5;sketch=1;shadow=0;glass=0;fontSize=30;strokeColor=#666666;fontColor=#333333;" vertex="1" parent="1">
          <mxGeometry x="461" y="80" width="200" height="70" as="geometry" />
        </mxCell>
        <mxCell id="Z4nJhuRU2NX9AublZQwj-162" value="APP" style="rounded=1;whiteSpace=wrap;html=1;strokeWidth=2;fillWeight=4;hachureGap=8;hachureAngle=45;fillColor=#f5f5f5;sketch=1;shadow=0;glass=0;fontSize=30;strokeColor=#666666;fontColor=#333333;" vertex="1" parent="1">
          <mxGeometry x="751" y="80" width="200" height="70" as="geometry" />
        </mxCell>
        <mxCell id="Z4nJhuRU2NX9AublZQwj-163" value="H5" style="rounded=1;whiteSpace=wrap;html=1;strokeWidth=2;fillWeight=4;hachureGap=8;hachureAngle=45;fillColor=#f5f5f5;sketch=1;shadow=0;glass=0;fontSize=30;strokeColor=#666666;fontColor=#333333;" vertex="1" parent="1">
          <mxGeometry x="1041" y="80" width="200" height="70" as="geometry" />
        </mxCell>
        <mxCell id="Z4nJhuRU2NX9AublZQwj-164" value="Wxapp" style="rounded=1;whiteSpace=wrap;html=1;strokeWidth=2;fillWeight=4;hachureGap=8;hachureAngle=45;fillColor=#f5f5f5;sketch=1;shadow=0;glass=0;fontSize=30;strokeColor=#666666;fontColor=#333333;" vertex="1" parent="1">
          <mxGeometry x="1331" y="80" width="200" height="70" as="geometry" />
        </mxCell>
        <mxCell id="Z4nJhuRU2NX9AublZQwj-165" value="..." style="rounded=1;whiteSpace=wrap;html=1;strokeWidth=2;fillWeight=4;hachureGap=8;hachureAngle=45;fillColor=#f5f5f5;sketch=1;shadow=0;glass=0;fontSize=30;strokeColor=#666666;fontColor=#333333;" vertex="1" parent="1">
          <mxGeometry x="1621" y="80" width="200" height="70" as="geometry" />
        </mxCell>
        <mxCell id="Z4nJhuRU2NX9AublZQwj-166" value="门户" style="text;html=1;strokeColor=none;fillColor=none;align=center;verticalAlign=middle;whiteSpace=wrap;rounded=0;shadow=0;glass=0;sketch=1;fontSize=30;labelBackgroundColor=none;labelBorderColor=none;" vertex="1" parent="1">
          <mxGeometry x="139" y="77.5" width="190" height="75" as="geometry" />
        </mxCell>
        <mxCell id="Z4nJhuRU2NX9AublZQwj-167" value="未命名图层" parent="0" />
      </root>
    </mxGraphModel>
  </diagram>
</mxfile>
